<?xml version="1.0" standalone="no"?>
<!DOCTYPE svg PUBLIC "-//W3C//DTD SVG 20010904//EN"
 "http://www.w3.org/TR/2001/REC-SVG-20010904/DTD/svg10.dtd">
<svg version="1.0" xmlns="http://www.w3.org/2000/svg"
 width="707.000000pt" height="409.000000pt" viewBox="0 0 707.000000 409.000000"
 preserveAspectRatio="xMidYMid meet">

<g transform="translate(0.000000,409.000000) scale(0.100000,-0.100000)"
fill="#000000" stroke="none">
<path d="M1226 3660 c-153 -24 -329 -94 -455 -180 -210 -142 -383 -388 -447
-635 -64 -249 -30 -558 85 -771 l30 -57 -9 -205 c-6 -113 -9 -206 -8 -208 2
-1 95 2 207 7 l204 10 81 -40 c274 -133 630 -143 899 -24 31 14 59 24 61 22 2
-2 17 -87 34 -188 25 -151 36 -195 63 -248 43 -85 125 -161 215 -199 l69 -29
455 -3 455 -4 190 -224 c105 -123 199 -236 211 -250 l21 -25 213 250 213 250
451 3 c441 3 452 4 507 26 86 34 148 80 195 144 54 74 69 120 103 322 15 92
30 169 33 171 3 3 27 -4 54 -16 274 -120 623 -112 904 22 l84 40 131 -6 c71
-3 163 -8 204 -11 l74 -5 -8 209 -7 210 35 73 c44 94 84 220 98 312 18 117 6
344 -24 452 -53 188 -150 355 -284 488 -101 99 -182 157 -310 219 -411 198
-901 117 -1237 -206 l-69 -66 -1361 0 -1362 0 -39 41 c-140 146 -331 255 -537
309 -95 24 -323 35 -422 20z m404 -131 c47 -11 122 -38 167 -59 82 -38 216
-124 248 -160 16 -17 14 -19 -36 -29 -120 -26 -245 -126 -296 -237 -14 -31
-30 -89 -35 -128 -9 -66 -4 -107 81 -626 50 -305 92 -564 94 -575 4 -37 -203
-108 -365 -125 -175 -18 -356 15 -531 97 l-97 46 -161 -7 -161 -6 7 163 7 164
-31 54 c-94 168 -139 409 -112 600 32 216 122 398 275 558 160 166 326 248
596 295 60 11 268 -4 350 -25z m4389 1 c345 -84 610 -340 718 -695 25 -83 27
-103 27 -260 0 -201 -15 -270 -93 -432 -45 -92 -49 -106 -45 -160 2 -32 5
-104 8 -160 l4 -103 -163 7 -163 6 -84 -41 c-220 -108 -477 -135 -706 -72 -72
20 -202 74 -202 84 0 3 41 254 91 558 104 635 106 668 50 781 -16 34 -44 78
-60 98 -46 55 -137 111 -219 135 l-73 21 43 35 c139 114 308 188 494 218 88
14 276 4 373 -20z m-3096 -1004 c43 -18 73 -53 86 -101 15 -54 15 -567 0 -619
-6 -22 -23 -51 -38 -66 l-27 -27 23 -52 c13 -29 21 -57 18 -62 -4 -5 -40 -9
-80 -9 l-75 0 -24 49 -25 48 -70 6 c-102 8 -146 36 -170 106 -15 45 -15 598 0
638 14 37 47 73 84 89 42 18 255 19 298 0z m411 -2 c3 -9 6 -156 6 -328 0
-229 3 -315 12 -324 14 -14 97 -16 118 -2 13 8 16 60 20 337 l5 328 75 0 75 0
3 -366 c2 -365 2 -366 -20 -399 -48 -69 -64 -75 -218 -75 -151 0 -167 5 -214
69 -20 26 -21 42 -24 389 -1 198 0 367 2 374 8 20 152 18 160 -3z m634 -406
l-3 -423 -68 -3 c-42 -2 -74 2 -83 9 -12 9 -14 80 -14 419 0 223 3 410 7 413
3 4 42 7 85 7 l78 0 -2 -422z m672 404 c0 -10 -67 -164 -150 -342 -82 -178
-150 -325 -150 -327 0 -1 62 -4 138 -5 l137 -3 3 -63 c2 -38 -2 -69 -9 -78 -9
-11 -56 -14 -244 -14 -237 0 -265 3 -265 24 0 7 69 159 154 339 l154 327 -134
0 -134 0 0 73 c0 41 3 77 7 80 3 4 116 7 250 7 228 0 243 -1 243 -18z"/>
<path d="M2710 2370 c-12 -8 -16 -47 -18 -233 -2 -136 1 -234 7 -250 10 -25
14 -27 74 -27 36 0 68 5 75 12 17 17 17 479 0 496 -14 14 -116 16 -138 2z"/>
</g>
</svg>
